PathFileType	4	(X/Y/Z)	Patient4_TMGait_0pt2_03_right_24.trc.trc
DataRate	CameraRate	NumFrames	NumMarkers	Units	OrigDataRate	OrigDataStartFrame	OrigNumFrames
49.469964664311	49.469964664311	4	33	mm	49.469964664311	36	       141
Frame#	Time	Sacral			L.Shoulder			Chest			R.Shoulder			Neck			R.ASIS			L.ASIS			R.Thigh.Superior			R.Thigh.Lateral			R.Thigh.Inferior			R.Patella			L.Thigh.Superior			L.Thigh.Lateral			L.Thigh.Inferior			L.Patella			L.Shank.Superior			L.Shank.Lateral			L.Shank.Inferior			R.Shank.Superior			R.Shank.Lateral			R.Shank.Inferior			R.Heel			R.Midfoot.Superior			R.Midfoot.Lateral			R.Toe			L.Heel			L.Midfoot.Lateral			L.Midfoot.Superior			L.Toe			L.Elbow			L.Wrist			R.Elbow			R.Wrist			
		X1	Y1	Z1	X2	Y2	Z2	X3	Y3	Z3	X4	Y4	Z4	X5	Y5	Z5	X6	Y6	Z6	X7	Y7	Z7	X8	Y8	Z8	X9	Y9	Z9	X10	Y10	Z10	X11	Y11	Z11	X12	Y12	Z12	X13	Y13	Z13	X14	Y14	Z14	X15	Y15	Z15	X16	Y16	Z16	X17	Y17	Z17	X18	Y18	Z18	X19	Y19	Z19	X20	Y20	Z20	X21	Y21	Z21	X22	Y22	Z22	X23	Y23	Z23	X24	Y24	Z24	X25	Y25	Z25	X26	Y26	Z26	X27	Y27	Z27	X28	Y28	Z28	X29	Y29	Z29	X30	Y30	Z30	X31	Y31	Z31	X32	Y32	Z32	X33	Y33	Z33	

36	51.947500000000	892.438314514858	995.661088037875	483.607287025494	1073.266868534828	1428.795721143503	320.112119933349	1146.192215498771	1370.930146733651	498.834753923801	1026.426711829849	1445.343378533192	649.727603122393	1023.839748147159	1493.256556567699	469.363498955187	1111.002859438409	942.478182988863	626.652224796971	1123.284396823842	965.982339150127	352.354627762096	1175.142582652723	748.260278991351	592.695524374372	1104.121761080851	630.384690952880	650.331876091479	1189.796746735025	585.442730711800	573.637367644182	1199.788875120632	495.329773112323	580.950326776694	1131.428503842409	734.400667002984	365.278947775125	1010.932715313304	628.259671728417	291.071475121059	1087.669996703506	541.720896901248	351.186907699286	1075.052485649264	467.896971132585	351.718225522802	1027.696699338825	406.331828528730	340.963056076981	909.503283266567	322.581861685823	285.484616241885	933.293738852441	195.560013710313	344.984312304848	1169.139681019883	404.717262382862	587.891015851468	1097.716656316760	303.299408801244	653.754576589363	1135.759574208753	206.259877368637	591.436201860932	998.536299514267	43.795237854351	570.824172475072	1170.098229463377	97.191314319040	601.317661858038	1083.872317058346	37.451298298089	642.405140570096	1291.443911623553	46.116503035219	625.930467631036	775.095929031828	62.005482610788	379.552654670638	847.384481781650	47.889916134238	299.480108042936	938.086438406513	100.248591269229	323.891641689757	1058.310195244181	38.482043212899	293.713057409859	1124.917916453225	1080.716964634409	200.647849702095	1333.114868045251	933.846905800799	240.189906792887	938.950492589164	1114.332778367927	777.250897897623	1085.572890631825	900.900189258114	808.330263884366	
37	51.967714285714	894.916170695196	996.409898408553	490.957166061382	1072.478718661850	1429.075841947753	323.799453769219	1148.244679736841	1372.004692080344	501.595506064665	1030.767341279581	1446.578645849158	654.118449096475	1025.161009818201	1493.985809540328	473.523298715766	1115.296558256066	943.326060075992	631.055623131778	1123.937272729648	966.830741577154	356.705005981881	1176.880008682645	747.652926208321	596.462465732477	1104.696177113681	630.378377766189	654.133264389861	1189.212881268647	584.770308135554	576.695914505675	1198.060275702105	494.643809208731	583.461129568955	1135.472933322362	735.820551117835	368.398011162872	1016.204709355909	628.405901058181	294.464711681417	1095.877897759090	542.292400105894	352.588116533818	1083.892666963084	467.321702821405	351.966968128696	1034.308367335033	406.314346678454	341.795220759187	913.494766833445	326.151955280394	286.831829528927	934.854202933071	198.090408077859	344.849532563194	1166.865585622554	404.286843861373	590.051309539068	1095.104559106168	302.847916500497	655.410912424158	1132.520143653576	206.024970338116	592.320471436927	994.472454765514	43.858267939982	570.903595136715	1166.161092009329	97.120286366553	601.533611310126	1079.813574333612	37.460782688157	642.488161987685	1287.427333552871	45.798067401449	626.069173230957	773.055184717507	69.093409323163	379.035573069867	844.837497511884	51.954719360298	299.175644348656	937.199390597088	101.678554228518	323.144267681802	1054.989864943516	37.867493696236	293.694009495113	1116.792716641441	1078.885155955256	206.703922533458	1310.241683778719	911.207998950561	241.806248306835	951.871943316981	1114.063195152373	784.929965081345	1106.086540043707	905.857167430629	813.333992492070	
38	51.987928571429	896.962992787069	997.168640906021	498.303920558224	1071.268199025927	1429.263466089253	327.328476200918	1150.184842981383	1372.885050479150	503.993290379742	1035.437292117582	1447.714944397914	658.363941160667	1026.447303760359	1494.642589029200	477.605245866942	1119.290421903734	944.069843013585	635.151917324903	1124.040204018094	967.535667148135	360.782033879859	1178.189862159325	746.973349341852	600.028994441153	1104.851004777043	630.360364749995	657.810766291291	1188.133699493867	584.085775570406	579.590379062121	1195.822001382130	493.997217935370	585.866754187088	1139.904265069163	737.468558573788	371.389481640598	1022.538219821420	628.320984723412	297.664996581255	1105.471124754488	543.024943559860	353.883788689018	1094.275768882878	466.831608162064	352.079305108987	1042.374716738591	406.321924405825	342.495493938253	918.909112136870	330.071211651160	288.065302121463	937.420565231997	201.060630057753	344.638055583891	1164.186835334667	403.902357916581	592.159958524391	1092.162343948398	302.390261795690	656.996431585213	1129.119848593926	205.821480860581	593.193479012677	990.355251610686	43.890151871886	570.981199626088	1162.190171616180	97.034584459876	601.733690137535	1075.706069575359	37.446800788563	642.567551220291	1283.362082239743	45.503211366772	626.191198303864	771.816242149859	77.544482726673	378.546745206596	842.773554757313	56.998566890355	298.879563098713	936.928369174523	103.433733528884	322.348729253273	1051.663237861025	37.286258141688	293.691530544466	1107.461835531311	1077.125361895122	212.669787282294	1284.393871560891	890.271352768371	243.125110180620	965.722818916323	1113.837259357431	792.583947148999	1126.474515970647	910.517136436623	818.108376835411	
39	52.008142857143	898.563517705584	997.861825873930	505.593905606492	1069.676969629853	1429.319628432214	330.694976545560	1151.989591488977	1373.493887519559	506.021519732547	1040.378322703410	1448.656386867782	662.421343783898	1027.711842695961	1495.169668091007	481.584661916568	1122.932292457703	944.684292258276	638.938797356247	1123.594102219097	968.016751094197	364.582678842836	1179.155695889190	746.261427782103	603.369395282398	1104.740189586121	630.302935804940	661.310263979098	1186.739942248931	583.413056595135	582.269758113555	1193.293413893541	493.375647998090	588.100991301369	1144.663293902637	739.351041544319	374.274246592041	1029.905326154791	628.062622277084	300.679183152637	1116.353307830382	543.999499023699	355.156927697681	1106.124331967435	466.528586300869	352.158632860711	1051.868748287412	406.439108041261	343.115398950022	925.769078933434	334.387729202885	289.236726463086	941.041667684082	204.530742438220	344.377906753526	1161.288796204767	403.542743009185	594.152085410113	1089.056632450046	301.934172175800	658.476277148509	1125.650356854960	205.635928215927	594.014666565569	986.212800299669	43.898566422065	571.059824190324	1158.209141613292	96.946410416203	601.908278486804	1071.575729212089	37.419185431951	642.645438608202	1279.274273745637	45.246304796649	626.294815911158	771.577453092279	87.466420357305	378.166717171864	841.301053144546	63.164384894055	298.651192990914	937.318878564867	105.568520702095	321.541070774208	1048.282932680886	36.684312412565	293.689908732331	1096.827637012032	1075.462226515128	218.439027558041	1255.905645413854	871.506488652240	244.273513529903	980.431645220044	1113.589919852691	800.087227648559	1146.879962479919	914.839913145355	822.628142267718	
